<?xml version="1.0" encoding="utf-8"?>
<!-- Generator: Adobe Illustrator 16.0.0, SVG Export Plug-In . SVG Version: 6.00 Build 0)  -->
<!DOCTYPE svg PUBLIC "-//W3C//DTD SVG 1.1//EN" "http://www.w3.org/Graphics/SVG/1.1/DTD/svg11.dtd">
<svg version="1.1"
	 id="svg3352" xmlns:sodipodi="http://sodipodi.sourceforge.net/DTD/sodipodi-0.dtd" xmlns:svg="http://www.w3.org/2000/svg" xmlns:dc="http://purl.org/dc/elements/1.1/" xmlns:inkscape="http://www.inkscape.org/namespaces/inkscape" xmlns:rdf="http://www.w3.org/1999/02/22-rdf-syntax-ns#" xmlns:cc="http://creativecommons.org/ns#" inkscape:version="0.91 r13725" sodipodi:docname="escudo_dgae.svg"
	 xmlns="http://www.w3.org/2000/svg" xmlns:xlink="http://www.w3.org/1999/xlink" x="0px" y="0px" width="400px" height="300px"
	 viewBox="0 0 400 300" enable-background="new 0 0 400 300" xml:space="preserve">
<sodipodi:namedview  pagecolor="#ffffff" bordercolor="#666666" inkscape:zoom="1.01" inkscape:cx="227.22721" borderopacity="1.0" id="base" inkscape:cy="423.98162" showgrid="false" inkscape:pageopacity="0.0" inkscape:pageshadow="2" inkscape:document-units="px" inkscape:window-width="1920" inkscape:current-layer="layer1" inkscape:window-x="-8" inkscape:window-maximized="1" inkscape:window-height="1057" inkscape:window-y="-8">
	</sodipodi:namedview>
<g id="layer1" inkscape:label="Capa 1" inkscape:groupmode="layer">
	<g>
		
			<linearGradient id="SVGID_1_" gradientUnits="userSpaceOnUse" x1="34.968" y1="689.499" x2="85.7575" y2="638.7096" gradientTransform="matrix(1 0 0 1 16.7998 -556.8008)">
			<stop  offset="0" style="stop-color:#6699CC"/>
			<stop  offset="0" style="stop-color:#293688"/>
			<stop  offset="1" style="stop-color:#6395C9"/>
		</linearGradient>
		<path fill="url(#SVGID_1_)" stroke="#3F4F9E" stroke-miterlimit="10" d="M59.52,73.672h15.059c9.707,0,16.918,1.205,21.635,3.609
			c4.718,2.405,8.604,6.318,11.657,11.735c3.055,5.418,4.582,11.743,4.582,18.976c0,5.146-0.854,9.875-2.563,14.188
			s-4.067,7.893-7.076,10.736c-3.009,2.845-6.268,4.812-9.773,5.9c-3.507,1.09-9.585,1.635-18.232,1.635H59.52V73.672z M72.14,85.93
			v42.128h5.901c5.812,0,10.023-0.667,12.644-2c2.617-1.333,4.759-3.575,6.423-6.726s2.497-7.029,2.497-11.635
			c0-7.089-1.981-12.588-5.946-16.496c-3.571-3.514-9.308-5.271-17.206-5.271H72.14L72.14,85.93z"/>
		
			<linearGradient id="SVGID_2_" gradientUnits="userSpaceOnUse" x1="117.6199" y1="688.9336" x2="168.5877" y2="637.9659" gradientTransform="matrix(1 0 0 1 16.7998 -556.8008)">
			<stop  offset="0" style="stop-color:#6699CC"/>
			<stop  offset="0" style="stop-color:#293688"/>
			<stop  offset="1" style="stop-color:#6395C9"/>
		</linearGradient>
		<path fill="url(#SVGID_2_)" stroke="#3F4F9E" stroke-miterlimit="10" d="M188.731,84.567l-8.951,8.853
			c-5.664-5.992-12.268-8.988-19.81-8.988c-6.574,0-12.079,2.179-16.517,6.537c-4.438,4.357-6.655,9.654-6.655,15.889
			c0,6.446,2.302,11.91,6.906,16.389c4.604,4.479,10.286,6.717,17.042,6.717c4.394,0,8.098-0.922,11.11-2.769
			c3.016-1.846,5.445-4.735,7.294-8.67h-19.338v-11.938h33.593l0.092,2.813c0,5.841-1.515,11.379-4.54,16.615
			c-3.026,5.235-6.944,9.231-11.758,11.983c-4.813,2.754-10.457,4.131-16.934,4.131c-6.932,0-13.113-1.506-18.544-4.517
			c-5.434-3.011-9.729-7.301-12.894-12.87c-3.163-5.568-4.744-11.576-4.744-18.021c0-8.838,2.921-16.523,8.763-23.063
			c6.93-7.777,15.947-11.666,27.056-11.666c5.813,0,11.243,1.074,16.298,3.223C180.469,77.031,184.645,80.149,188.731,84.567z"/>
		
			<linearGradient id="SVGID_3_" gradientUnits="userSpaceOnUse" x1="191.3196" y1="703.0762" x2="244.0307" y2="650.3649" gradientTransform="matrix(1 0 0 1 16.7998 -556.8008)">
			<stop  offset="0" style="stop-color:#6699CC"/>
			<stop  offset="0" style="stop-color:#293688"/>
			<stop  offset="1" style="stop-color:#6395C9"/>
		</linearGradient>
		<path fill="url(#SVGID_3_)" stroke="#3F4F9E" stroke-miterlimit="10" d="M228.047,73.672h12.891l25.685,66.779h-13.209
			l-5.226-13.756h-27.25l-5.434,13.756h-13.209L228.047,73.672z M234.573,91.377l-8.959,22.926h17.865L234.573,91.377z"/>
		
			<linearGradient id="SVGID_4_" gradientUnits="userSpaceOnUse" x1="254.6252" y1="689.666" x2="306.2395" y2="638.0517" gradientTransform="matrix(1 0 0 1 16.7998 -556.8008)">
			<stop  offset="0" style="stop-color:#6699CC"/>
			<stop  offset="0" style="stop-color:#293688"/>
			<stop  offset="1" style="stop-color:#6395C9"/>
		</linearGradient>
		<path fill="url(#SVGID_4_)" stroke="#3F4F9E" stroke-miterlimit="10" d="M279.004,73.672h36.455v12.439h-23.834v12.075h23.834
			v12.211h-23.834v17.567h23.834v12.484h-36.453V73.672H279.004z"/>
	</g>
	<g>
		
			<linearGradient id="SVGID_5_" gradientUnits="userSpaceOnUse" x1="34.342" y1="776.7266" x2="84.9446" y2="726.124" gradientTransform="matrix(1 0 0 1 16.7998 -556.8008)">
			<stop  offset="0" style="stop-color:#F7901F"/>
			<stop  offset="0.4" style="stop-color:#FDB719"/>
			<stop  offset="1" style="stop-color:#FFCD05"/>
		</linearGradient>
		<path fill="url(#SVGID_5_)" stroke="#F89838" stroke-miterlimit="10" d="M53.851,166.645h12.756v43.183
			c0,3.721,0.325,6.353,0.978,7.894c0.649,1.543,1.726,2.774,3.224,3.696s3.306,1.386,5.425,1.386c2.239,0,4.168-0.515,5.788-1.544
			c1.619-1.026,2.739-2.336,3.358-3.922c0.621-1.588,0.932-4.618,0.932-9.097v-41.594h12.757v39.812
			c0,6.72-0.379,11.379-1.135,13.981c-0.757,2.604-2.202,5.115-4.335,7.537c-2.135,2.422-4.594,4.215-7.377,5.379
			c-2.785,1.166-6.022,1.748-9.716,1.748c-4.843,0-9.057-1.113-12.644-3.338s-6.151-5.008-7.694-8.354
			c-1.543-3.344-2.314-8.996-2.314-16.955L53.851,166.645L53.851,166.645z"/>
		
			<linearGradient id="SVGID_6_" gradientUnits="userSpaceOnUse" x1="93.738" y1="786.8975" x2="153.8659" y2="726.7695" gradientTransform="matrix(1 0 0 1 16.7998 -556.8008)">
			<stop  offset="0" style="stop-color:#F7901F"/>
			<stop  offset="0.4" style="stop-color:#FDB719"/>
			<stop  offset="1" style="stop-color:#FFCD05"/>
		</linearGradient>
		<path fill="url(#SVGID_6_)" stroke="#F89838" stroke-miterlimit="10" d="M113.864,166.645h12.193l28.572,43.943v-43.943h12.712
			v66.777h-12.229l-28.537-43.807v43.807h-12.712L113.864,166.645L113.864,166.645z"/>
		
			<linearGradient id="SVGID_7_" gradientUnits="userSpaceOnUse" x1="166.2385" y1="796.0479" x2="218.9494" y2="743.337" gradientTransform="matrix(1 0 0 1 16.7998 -556.8008)">
			<stop  offset="0" style="stop-color:#F7901F"/>
			<stop  offset="0.4" style="stop-color:#FDB719"/>
			<stop  offset="1" style="stop-color:#FFCD05"/>
		</linearGradient>
		<path fill="url(#SVGID_7_)" stroke="#F89838" stroke-miterlimit="10" d="M202.967,166.645h12.891l25.685,66.777H228.33
			l-5.226-13.754h-27.249l-5.433,13.754h-13.21L202.967,166.645z M209.49,184.35l-8.96,22.924h17.865L209.49,184.35z"/>
		
			<linearGradient id="SVGID_8_" gradientUnits="userSpaceOnUse" x1="235.3381" y1="796.0771" x2="302.4405" y2="728.9749" gradientTransform="matrix(1 0 0 1 16.7998 -556.8008)">
			<stop  offset="0" style="stop-color:#F7901F"/>
			<stop  offset="0.4" style="stop-color:#FDB719"/>
			<stop  offset="1" style="stop-color:#FFCD05"/>
		</linearGradient>
		<path fill="url(#SVGID_8_)" stroke="#F89838" stroke-miterlimit="10" d="M257.848,166.645h12.385l15.479,46.576l15.62-46.576
			h12.378l11.202,66.777h-12.293l-7.159-42.174l-14.187,42.174h-11.203l-14.061-42.174l-7.332,42.174h-12.395L257.848,166.645z"/>
	</g>
	
		<radialGradient id="rect3366_1_" cx="172.8401" cy="709.4463" r="98.479" gradientTransform="matrix(1 0 0 1 16.7998 -556.8008)" gradientUnits="userSpaceOnUse">
		<stop  offset="0" style="stop-color:#FFCD05"/>
		<stop  offset="0.6" style="stop-color:#FDB719"/>
		<stop  offset="1" style="stop-color:#F7901F"/>
	</radialGradient>
	
		<rect id="rect3366" x="50.412" y="149.194" fill="url(#rect3366_1_)" stroke="#F89838" stroke-miterlimit="10" width="278.455" height="6.904"/>
	<g>
		<text transform="matrix(1 0 0 1 328.1467 242.5742)" fill="#F89838" font-family="'ArialMT'" font-size="29.0536">®</text>
	</g>
</g>
</svg>
