<?xml version="1.0" encoding="utf-8"?>
<!-- Generator: Adobe Illustrator 16.0.0, SVG Export Plug-In . SVG Version: 6.00 Build 0)  -->
<!DOCTYPE svg PUBLIC "-//W3C//DTD SVG 1.1//EN" "http://www.w3.org/Graphics/SVG/1.1/DTD/svg11.dtd">
<svg version="1.1" id="SIAE" xmlns="http://www.w3.org/2000/svg" xmlns:xlink="http://www.w3.org/1999/xlink" x="0px" y="0px"
	 width="400px" height="300px" viewBox="0 0 400 300" enable-background="new 0 0 400 300" xml:space="preserve">
<g>
	
		<radialGradient id="SVGID_1_" cx="2985.426" cy="-7277.2422" r="650.2415" gradientTransform="matrix(0.1932 0 0 -0.1932 -376.7842 -1255.9617)" gradientUnits="userSpaceOnUse">
		<stop  offset="0" style="stop-color:#F7901F"/>
		<stop  offset="0.629" style="stop-color:#FDB719"/>
		<stop  offset="1" style="stop-color:#FFCD05"/>
	</radialGradient>
	<path fill="url(#SVGID_1_)" stroke="#F89838" stroke-miterlimit="10" d="M266.039,252.971
		c-18.754,0.004-201.142,0.051-204.104,0.051c-3.103,0-6.678-3.127-6.678-6.681c0-3.575,0-188.207,0-193.109
		c0-3.126,3.575-6.252,6.678-6.252c3.125,0,273.002,0,276.578,0c3.127,0,6.229,2.676,6.229,6.252c0,7.593,0,163.312,0,163.312
		s-0.084,2.026-1.479,2.026c-1.156,0-14.879-0.027-19.558-0.036c-2.063-0.005-1.549,1.502-1.549,1.502v7.483
		c0,0-0.518,1.396,1.549,1.396c2.99,0,9.345,0,10.179,0c1.098,0,1.069,1.797,1.069,1.797v2.638c0,0-0.114,1.688-1.215,1.688
		c-0.844,0-7.172,0-10.032,0c-1.863,0-1.695,1.659-1.695,1.659l-0.002,8.685c0,0-0.134,1.263,1.6,1.263c4.322,0,18.027,0,19.455,0
		c1.695,0,1.68,1.233,1.68,1.233v3.791c0,0-0.084,1.354-1.58,1.354c-1.479,0-25.143,0-26.235,0c-1.101,0-1.164-1.252-1.164-1.252
		V213.45c0,0-0.033-1.447,1.358-1.447c1.398,0,18.5,0,19.761,0c1.493,0,1.637-1.547,1.637-1.547s0-135.165,0-154.547
		c0-1.752-1.799-2.676-1.799-2.676H64.186c0,0-2.249,0.782-2.249,2.226c0,19.516,0,162.611,0,188.354
		c0,2.605,2.697,2.828,2.697,2.828s176.737,0,194.521,0c1.916,0,1.438-1.354,1.438-1.354v-9.384c0,0,0.479-1.213-1.439-1.221
		c-2.553-0.01-7.84-0.031-10.375-0.041c-1.887-0.006-1.418-1.434-1.418-1.434l-0.045-19.758c0,0-0.393-1.447,1.164-1.447
		c3.453,0,13.623,0,17.563,0c2.104,0,1.565,1.348,1.565,1.348l-0.022,3.793c0,0,0.434,1.189-1.342,1.18
		c-2.601-0.014-8.314-0.047-11.074-0.061c-2.068-0.012-1.563,1.375-1.563,1.375s-0.02,4.195-0.028,6.783
		c0,0.033-0.007,0.102-0.007,0.102s-0.569,1.566,1.693,1.563c2.781-0.014,8.262-0.027,10.875-0.04
		c1.939-0.007,1.453,1.679,1.453,1.679v21.949C267.594,251.667,268.112,252.971,266.039,252.971z"/>
	
		<radialGradient id="SVGID_2_" cx="3389.4202" cy="-7704.2285" r="76.1568" gradientTransform="matrix(0.1932 0 0 -0.1932 -376.7842 -1255.9617)" gradientUnits="userSpaceOnUse">
		<stop  offset="0" style="stop-color:#FDB719"/>
		<stop  offset="1" style="stop-color:#FFCD05"/>
	</radialGradient>
	<path fill="url(#SVGID_2_)" stroke="#F89838" stroke-miterlimit="10" d="M274.553,213.249v38.418c0,0,0.066,1.34,1.564,1.34
		c1.493,0,2.19-0.028,3.786-0.028c1.601,0,1.646-1.107,1.646-1.107v-38.42c0,0,0.152-1.467-1.545-1.467
		c-1.695,0-2.396,0.016-3.99,0.016C274.42,211.996,274.553,213.249,274.553,213.249z"/>
	
		<radialGradient id="SVGID_3_" cx="3495.5461" cy="-7704.1309" r="84.3879" gradientTransform="matrix(0.1932 0 0 -0.1932 -376.7842 -1255.9617)" gradientUnits="userSpaceOnUse">
		<stop  offset="0" style="stop-color:#FDB719"/>
		<stop  offset="1" style="stop-color:#FFCD05"/>
	</radialGradient>
	<path fill="url(#SVGID_3_)" stroke="#F89838" stroke-miterlimit="10" d="M294.332,212.001l8.819-0.051c0,0,5.906,0,5.906,5.53
		c0,5.088,0,34.285,0,34.285s-0.117,1.237-1.414,1.237s-2.088-0.026-2.994-0.026s-1.391-1.211-1.391-1.211
		s0.037-13.271,0.037-15.066c0-1.797-1.541-1.641-1.541-1.641l-6.385,0.035c0,0-1.604-0.191-1.604,1.604
		c0,1.796-0.041,15.068-0.041,15.068s0.351,1.194-1.646,1.194s-1.297,0-2.693,0c-1.396,0-1.332-1.298-1.332-1.298
		s0.025-28.482,0.025-34.313C287.983,211.95,294.332,212.001,294.332,212.001z M293.951,220.729c0-0.9-0.029,6.791-0.029,6.791
		s-0.033,1.396,1.352,1.396c1.383,0,5.088,0,6.484,0c1.396,0,1.569-1.396,1.569-1.396s0-6.096,0-6.813
		c0-0.998-0.271-3.747-2.268-3.747c-1.994,0-2.357,0.021-4.951,0.021S293.951,221.928,293.951,220.729z"/>
	
		<radialGradient id="SVGID_4_" cx="2999.2756" cy="-7271.4668" r="403.964" gradientTransform="matrix(0.1932 0 0 -0.1932 -376.7842 -1255.9617)" gradientUnits="userSpaceOnUse">
		<stop  offset="0" style="stop-color:#F7901F"/>
		<stop  offset="0.629" style="stop-color:#FDB719"/>
		<stop  offset="1" style="stop-color:#FFCD05"/>
	</radialGradient>
	<path fill="url(#SVGID_4_)" stroke="#F89838" stroke-miterlimit="10" d="M133.307,149.999l67.369-86.963l71.369,86.963
		l-71.369,84.737L133.307,149.999z M200.676,222.706l61.117-72.707l-61.117-74.033l-57.542,74.033L200.676,222.706z"/>
	
		<radialGradient id="SVGID_5_" cx="2691.0862" cy="-7148.1245" r="292.509" gradientTransform="matrix(0.1932 0 0 -0.1932 -376.7842 -1255.9617)" gradientUnits="userSpaceOnUse">
		<stop  offset="0" style="stop-color:#6699CC"/>
		<stop  offset="1" style="stop-color:#293688"/>
	</radialGradient>
	<path fill="url(#SVGID_5_)" stroke="#0F1031" stroke-miterlimit="10" d="M68.638,154.001
		c1.775-73.132,116.709-71.499,137.216-25.578c4.508-0.138,11.775-0.455,11.775-0.455l-16.055,19.806l-19.184-19.185
		c0,0,5.778,0,11.58,0.45c-31.66-28.987-86.526-16.057-100.354,24.536c-3.126-3.126-8.479-12.931-8.479-12.931
		S70.864,151.773,68.638,154.001z"/>
	
		<radialGradient id="SVGID_6_" cx="3300.2708" cy="-7399.5688" r="290.6475" gradientTransform="matrix(0.1932 0 0 -0.1932 -376.7842 -1255.9617)" gradientUnits="userSpaceOnUse">
		<stop  offset="0" style="stop-color:#6699CC"/>
		<stop  offset="1" style="stop-color:#293688"/>
	</radialGradient>
	<path fill="url(#SVGID_6_)" stroke="#0F1031" stroke-miterlimit="10" d="M213.604,142.87c-2.676,3.553-10.703,14.707-10.703,14.707
		s-10.699-9.354-15.15-14.707c-4.479,67.33,105.257,84.286,135.591,26.313c3.571-0.449,10.698,0,10.698,0L317.531,150.9
		l-17.381,17.383c0,0,8.479,0.449,11.58,0.449C293.451,190.143,225.656,197.721,213.604,142.87z"/>
	
		<radialGradient id="SVGID_7_" cx="3274.5227" cy="-7153.9438" r="287.5853" gradientTransform="matrix(0.1932 0 0 -0.1932 -376.7842 -1255.9617)" gradientUnits="userSpaceOnUse">
		<stop  offset="0" style="stop-color:#D07A19"/>
		<stop  offset="0.629" style="stop-color:#E2A019"/>
		<stop  offset="1" style="stop-color:#FAAD19"/>
	</radialGradient>
	<path fill="url(#SVGID_7_)" stroke="#F89838" stroke-miterlimit="10" d="M182.715,130.755l18.859,17.019l16.055-17.576
		c0,0-6.201,0.279-11.152,0.168c27.658-31.214,88.324-17.383,98.129,24.537c3.125-3.127,10.703-15.155,10.703-15.155
		s8.027,8.029,13.379,14.707c6.701-61.102-99.033-79.329-136.495-23.604C187.291,130.849,182.715,130.755,182.715,130.755z"/>
	
		<radialGradient id="SVGID_8_" cx="2670.8967" cy="-7389.6147" r="296.6956" gradientTransform="matrix(0.1932 0 0 -0.1932 -376.7842 -1255.9617)" gradientUnits="userSpaceOnUse">
		<stop  offset="0" style="stop-color:#D07A19"/>
		<stop  offset="0.629" style="stop-color:#E2A019"/>
		<stop  offset="1" style="stop-color:#FAAD19"/>
	</radialGradient>
	<path fill="url(#SVGID_8_)" stroke="#F89838" stroke-miterlimit="10" d="M81.116,152.227l-16.935,16.06c0,0,2.229,0,9.804,0.446
		c41.486,58.429,145.867,35.24,140.066-27.661c-6.701,7.602-14.279,16.057-14.279,16.057s-6.679-8.027-12.479-14.707
		c-1.354,27.211-53.09,66.004-99.479,25.862c5.354,0.448,11.604-0.451,11.604-0.451L81.116,152.227z"/>
	
		<radialGradient id="SVGID_9_" cx="2676.0491" cy="-7275.0078" r="65.5601" gradientTransform="matrix(0.1932 0 0 -0.1932 -376.7842 -1255.9617)" gradientUnits="userSpaceOnUse">
		<stop  offset="0.1576" style="stop-color:#FEF058"/>
		<stop  offset="1" style="stop-color:#FDB719"/>
	</radialGradient>
	<path fill="url(#SVGID_9_)" d="M138.208,136.643c17.732-2.463,18.729,23.826,4.022,25.86
		C124.522,164.919,123.528,138.631,138.208,136.643z"/>
	
		<radialGradient id="SVGID_10_" cx="2987.761" cy="-6870.9873" r="65.5736" gradientTransform="matrix(0.1932 0 0 -0.1932 -376.7842 -1255.9617)" gradientUnits="userSpaceOnUse">
		<stop  offset="0.1576" style="stop-color:#FEF058"/>
		<stop  offset="1" style="stop-color:#FDB719"/>
	</radialGradient>
	<path fill="url(#SVGID_10_)" d="M198.426,58.583c17.76-2.438,18.729,23.825,4.025,25.861
		C184.74,86.885,183.744,60.597,198.426,58.583z"/>
	
		<radialGradient id="SVGID_11_" cx="3320.2151" cy="-7277.2808" r="65.5797" gradientTransform="matrix(0.1932 0 0 -0.1932 -376.7842 -1255.9617)" gradientUnits="userSpaceOnUse">
		<stop  offset="0.1576" style="stop-color:#FEF058"/>
		<stop  offset="1" style="stop-color:#FDB719"/>
	</radialGradient>
	<path fill="url(#SVGID_11_)" d="M262.668,137.068c17.733-2.439,18.707,23.849,4.002,25.886
		C248.981,165.368,247.987,139.081,262.668,137.068z"/>
	
		<radialGradient id="SVGID_12_" cx="2985.4358" cy="-7688.1045" r="65.5765" gradientTransform="matrix(0.1932 0 0 -0.1932 -376.7842 -1255.9617)" gradientUnits="userSpaceOnUse">
		<stop  offset="0.1576" style="stop-color:#FEF058"/>
		<stop  offset="1" style="stop-color:#FDB719"/>
	</radialGradient>
	<path fill="url(#SVGID_12_)" d="M197.976,216.453c17.761-2.465,18.731,23.824,4.026,25.861
		C184.289,244.729,183.295,218.466,197.976,216.453z"/>
</g>
</svg>
